<?xml version="1.0" encoding="utf-8"?>
<!-- Generator: Adobe Illustrator 18.0.0, SVG Export Plug-In . SVG Version: 6.00 Build 0)  -->
<!DOCTYPE svg PUBLIC "-//W3C//DTD SVG 1.1//EN" "http://www.w3.org/Graphics/SVG/1.1/DTD/svg11.dtd">
<svg version="1.1" id="Layer_1" xmlns="http://www.w3.org/2000/svg" xmlns:xlink="http://www.w3.org/1999/xlink" x="0px" y="0px"
	 viewBox="0 0 500 500" enable-background="new 0 0 500 500" xml:space="preserve">
<filter  id="AI_GaussianBlur_7">
	<feGaussianBlur  stdDeviation="7"></feGaussianBlur>
</filter>
<g filter="url(#AI_GaussianBlur_7)">
	
		<rect x="404.5" y="149.5" transform="matrix(0.7071 -0.7071 0.7071 0.7071 -56.9941 362.4041)" fill="#FFFFFF" width="8.8" height="200.9"/>
	<rect x="399.1" y="108.4" transform="matrix(0.5 -0.866 0.866 0.5 20.8978 453.9105)" fill="#FFFFFF" width="8.8" height="200.9"/>
	
		<rect x="383.3" y="70.1" transform="matrix(0.2588 -0.9659 0.9659 0.2588 122.6229 500.8419)" fill="#FFFFFF" width="8.8" height="200.9"/>
	<rect x="261.9" y="133.2" fill="#FFFFFF" width="200.9" height="8.8"/>
	
		<rect x="325.1" y="11.9" transform="matrix(-0.2588 -0.9659 0.9659 -0.2588 306.2519 459.6626)" fill="#FFFFFF" width="8.8" height="200.9"/>
	<rect x="286.7" y="-4" transform="matrix(-0.5 -0.866 0.866 -0.5 353.1833 396.8167)" fill="#FFFFFF" width="8.8" height="200.9"/>
	
		<rect x="245.6" y="-9.4" transform="matrix(-0.7071 -0.7071 0.7071 -0.7071 362.4041 332.1858)" fill="#FFFFFF" width="8.8" height="200.9"/>
	<rect x="204.4" y="-4" transform="matrix(-0.866 -0.5 0.5 -0.866 341.5063 284.4125)" fill="#FFFFFF" width="8.8" height="200.9"/>
	
		<rect x="166.1" y="11.9" transform="matrix(-0.9659 -0.2588 0.2588 -0.9659 306.1522 264.9729)" fill="#FFFFFF" width="8.8" height="200.9"/>
	<rect x="133.2" y="37.1" fill="#FFFFFF" width="8.8" height="200.9"/>
	
		<rect x="107.9" y="70.1" transform="matrix(-0.9659 0.2588 -0.2588 -0.9659 264.9729 306.1522)" fill="#FFFFFF" width="8.8" height="200.9"/>
	<rect x="92" y="108.4" transform="matrix(-0.866 0.5 -0.5 -0.866 284.4125 341.5063)" fill="#FFFFFF" width="8.8" height="200.9"/>
	
		<rect x="86.6" y="149.5" transform="matrix(-0.7071 0.7071 -0.7071 -0.7071 332.1858 362.4041)" fill="#FFFFFF" width="8.8" height="200.9"/>
	<rect x="92" y="190.7" transform="matrix(-0.5 0.866 -0.866 -0.5 396.8167 353.1833)" fill="#FFFFFF" width="8.8" height="200.9"/>
	
		<rect x="107.9" y="229" transform="matrix(-0.2588 0.9659 -0.9659 -0.2588 459.6626 306.2519)" fill="#FFFFFF" width="8.8" height="200.9"/>
	<rect x="37.1" y="358" fill="#FFFFFF" width="200.9" height="8.8"/>
	
		<rect x="166.1" y="287.2" transform="matrix(0.2588 0.9659 -0.9659 0.2588 500.8419 122.6229)" fill="#FFFFFF" width="8.8" height="200.9"/>
	<rect x="204.4" y="303.1" transform="matrix(0.5 0.866 -0.866 0.5 453.9105 20.8978)" fill="#FFFFFF" width="8.8" height="200.9"/>
	
		<rect x="245.6" y="308.5" transform="matrix(0.7071 0.7071 -0.7071 0.7071 362.4041 -56.9941)" fill="#FFFFFF" width="8.8" height="200.9"/>
	
		<rect x="286.7" y="303.1" transform="matrix(0.866 0.5 -0.5 0.866 240.7792 -91.5063)" fill="#FFFFFF" width="8.8" height="200.9"/>
	
		<rect x="325.1" y="287.2" transform="matrix(0.9659 0.2588 -0.2588 0.9659 111.5623 -72.0667)" fill="#FFFFFF" width="8.8" height="200.9"/>
	<rect x="358" y="261.9" fill="#FFFFFF" width="8.8" height="200.9"/>
	
		<rect x="383.3" y="229" transform="matrix(0.9659 -0.2588 0.2588 0.9659 -72.0667 111.5623)" fill="#FFFFFF" width="8.8" height="200.9"/>
	
		<rect x="399.1" y="190.7" transform="matrix(0.866 -0.5 0.5 0.866 -91.5063 240.7792)" fill="#FFFFFF" width="8.8" height="200.9"/>
	
		<rect x="404.5" y="149.5" transform="matrix(0.7071 -0.7071 0.7071 0.7071 -56.9941 362.4041)" fill="#FFFFFF" width="8.8" height="200.9"/>
	<rect x="399.1" y="108.4" transform="matrix(0.5 -0.866 0.866 0.5 20.8978 453.9105)" fill="#FFFFFF" width="8.8" height="200.9"/>
	
		<rect x="383.3" y="70.1" transform="matrix(0.2588 -0.9659 0.9659 0.2588 122.6229 500.8419)" fill="#FFFFFF" width="8.8" height="200.9"/>
	<rect x="261.9" y="133.2" fill="#FFFFFF" width="200.9" height="8.8"/>
	
		<rect x="325.1" y="11.9" transform="matrix(-0.2588 -0.9659 0.9659 -0.2588 306.2519 459.6626)" fill="#FFFFFF" width="8.8" height="200.9"/>
	<rect x="286.7" y="-4" transform="matrix(-0.5 -0.866 0.866 -0.5 353.1833 396.8167)" fill="#FFFFFF" width="8.8" height="200.9"/>
	
		<rect x="245.6" y="-9.4" transform="matrix(-0.7071 -0.7071 0.7071 -0.7071 362.4041 332.1858)" fill="#FFFFFF" width="8.8" height="200.9"/>
	<rect x="204.4" y="-4" transform="matrix(-0.866 -0.5 0.5 -0.866 341.5063 284.4125)" fill="#FFFFFF" width="8.8" height="200.9"/>
	
		<rect x="166.1" y="11.9" transform="matrix(-0.9659 -0.2588 0.2588 -0.9659 306.1522 264.9729)" fill="#FFFFFF" width="8.8" height="200.9"/>
	<rect x="133.2" y="37.1" fill="#FFFFFF" width="8.8" height="200.9"/>
	
		<rect x="107.9" y="70.1" transform="matrix(-0.9659 0.2588 -0.2588 -0.9659 264.9729 306.1522)" fill="#FFFFFF" width="8.8" height="200.9"/>
	<rect x="92" y="108.4" transform="matrix(-0.866 0.5 -0.5 -0.866 284.4125 341.5063)" fill="#FFFFFF" width="8.8" height="200.9"/>
	
		<rect x="86.6" y="149.5" transform="matrix(-0.7071 0.7071 -0.7071 -0.7071 332.1858 362.4041)" fill="#FFFFFF" width="8.8" height="200.9"/>
	<rect x="92" y="190.7" transform="matrix(-0.5 0.866 -0.866 -0.5 396.8167 353.1833)" fill="#FFFFFF" width="8.8" height="200.9"/>
	
		<rect x="107.9" y="229" transform="matrix(-0.2588 0.9659 -0.9659 -0.2588 459.6626 306.2519)" fill="#FFFFFF" width="8.8" height="200.9"/>
	<rect x="37.1" y="358" fill="#FFFFFF" width="200.9" height="8.8"/>
	
		<rect x="166.1" y="287.2" transform="matrix(0.2588 0.9659 -0.9659 0.2588 500.8419 122.6229)" fill="#FFFFFF" width="8.8" height="200.9"/>
	<rect x="204.4" y="303.1" transform="matrix(0.5 0.866 -0.866 0.5 453.9105 20.8978)" fill="#FFFFFF" width="8.8" height="200.9"/>
	
		<rect x="245.6" y="308.5" transform="matrix(0.7071 0.7071 -0.7071 0.7071 362.4041 -56.9941)" fill="#FFFFFF" width="8.8" height="200.9"/>
	
		<rect x="286.7" y="303.1" transform="matrix(0.866 0.5 -0.5 0.866 240.7792 -91.5063)" fill="#FFFFFF" width="8.8" height="200.9"/>
	
		<rect x="325.1" y="287.2" transform="matrix(0.9659 0.2588 -0.2588 0.9659 111.5623 -72.0667)" fill="#FFFFFF" width="8.8" height="200.9"/>
	<rect x="358" y="261.9" fill="#FFFFFF" width="8.8" height="200.9"/>
	
		<rect x="383.3" y="229" transform="matrix(0.9659 -0.2588 0.2588 0.9659 -72.0667 111.5623)" fill="#FFFFFF" width="8.8" height="200.9"/>
	
		<rect x="399.1" y="190.7" transform="matrix(0.866 -0.5 0.5 0.866 -91.5063 240.7792)" fill="#FFFFFF" width="8.8" height="200.9"/>
</g>
</svg>
